<?xml version="1.0" encoding="utf-8"?>
<!-- Generator: Adobe Illustrator 17.0.0, SVG Export Plug-In . SVG Version: 6.00 Build 0)  -->
<!DOCTYPE svg PUBLIC "-//W3C//DTD SVG 1.1//EN" "http://www.w3.org/Graphics/SVG/1.1/DTD/svg11.dtd">
<svg version="1.1" id="Layer_1" xmlns="http://www.w3.org/2000/svg" xmlns:xlink="http://www.w3.org/1999/xlink" x="0px" y="0px"
	 width="80px" height="88.5px" viewBox="0 0 80 88.5" style="enable-background:new 0 0 80 88.5;" xml:space="preserve">
<g>
	<path d="M63.3,36.8C51.9,12.3,45.9,3,27.3,3.4c-6.6,0.1-5-4.8-10.1-2.9c-5.1,1.9-0.7,4.6-5.9,8.9C-3.2,21.2-1.9,32.2,4.9,58.5
		c2.8,11.1-6.8,11.6-3,22.3c2.8,7.8,23.4,11.1,45.1,3C68.7,75.8,82.4,59.8,79.6,52C75.8,41.2,68.1,47.2,63.3,36.8z M44.6,77.2
		c-19.4,7.2-35.4,3-36,1.1C7.4,75.1,14.8,64.2,37,56c22.2-8.2,34.6-5.2,35.9-1.6C73.7,56.6,64,70,44.6,77.2z M38.4,59.8
		c-10.1,3.8-17.2,8.1-21.8,12c3.2,2.9,9.2,3.6,15.2,1.4c7.6-2.8,12.3-9.3,10.5-14.5c0-0.1-0.1-0.1-0.1-0.2
		C41,58.8,39.7,59.3,38.4,59.8z"/>
</g>
</svg>
