<?xml version="1.0" encoding="utf-8"?>
<!-- Generator: Adobe Illustrator 17.0.0, SVG Export Plug-In . SVG Version: 6.00 Build 0)  -->
<!DOCTYPE svg PUBLIC "-//W3C//DTD SVG 1.1//EN" "http://www.w3.org/Graphics/SVG/1.1/DTD/svg11.dtd">
<svg version="1.1" id="Layer_1" xmlns="http://www.w3.org/2000/svg" xmlns:xlink="http://www.w3.org/1999/xlink" x="0px" y="0px"
	 width="90px" height="58px" viewBox="0 0 90 58" style="enable-background:new 0 0 90 58;" xml:space="preserve">
<g>
	<path d="M3,5.4c2.4,1.3,36.2,19.5,37.5,20.1c1.3,0.7,2.9,1,4.5,1s3.3-0.3,4.5-1C50.8,24.9,84.6,6.7,87,5.4C89.5,4.1,91.8,0,87.3,0
		H2.7C-1.8,0,0.5,4.1,3,5.4z M88.1,15.4c-2.8,1.4-36.8,19.3-38.5,20.1c-1.7,0.9-2.9,1-4.5,1s-2.8-0.1-4.5-1
		C38.8,34.7,4.7,16.9,1.9,15.4c-2-1-1.9,0.2-1.9,1.1c0,0.9,0,36.7,0,36.7C0,55.3,2.8,58,5,58H85c2.2,0,5-2.7,5-4.8
		c0,0,0-35.8,0-36.7C90,15.6,90,14.4,88.1,15.4z"/>
</g>
</svg>
