<?xml version="1.0" encoding="utf-8"?>
<!-- Generator: Adobe Illustrator 17.0.0, SVG Export Plug-In . SVG Version: 6.00 Build 0)  -->
<!DOCTYPE svg PUBLIC "-//W3C//DTD SVG 1.1//EN" "http://www.w3.org/Graphics/SVG/1.1/DTD/svg11.dtd">
<svg version="1.1" id="Layer_1" xmlns="http://www.w3.org/2000/svg" xmlns:xlink="http://www.w3.org/1999/xlink" x="0px" y="0px"
	 width="92px" height="78px" viewBox="0 0 92 78" style="enable-background:new 0 0 92 78;" xml:space="preserve">
<path d="M61.9,45.5c-3.6,0-6.5,4-6.5,9c0,5,2.9,9,6.5,9c3.6,0,6.5-4,6.5-9C68.4,49.6,65.5,45.5,61.9,45.5z M84.5,22.1
	c0.7-1.8,0.8-12.2-3.2-22.1c0,0-9.1,1-22.8,10.4C55.7,9.6,50.9,9.2,46,9.2s-9.7,0.4-12.6,1.2C19.7,1,10.6,0,10.6,0
	C6.7,9.9,6.7,20.3,7.5,22.1C2.8,27.2,0,33.2,0,41.5C0,77.4,29.8,78,37.3,78c1.7,0,5.1,0,8.7,0c3.6,0,7,0,8.7,0
	C62.2,78,92,77.4,92,41.5C92,33.2,89.2,27.2,84.5,22.1z M46.1,73.6h-0.3C27,73.6,12.3,71.3,12.3,53c0-4.4,1.5-8.5,5.2-11.8
	c6.1-5.6,16.5-2.7,28.3-2.7c0,0,0.1,0,0.1,0c0,0,0.1,0,0.1,0c11.8,0,22.2-3,28.3,2.7c3.7,3.4,5.2,7.5,5.2,11.8
	C79.7,71.3,65,73.6,46.1,73.6z M30.1,45.5c-3.6,0-6.5,4-6.5,9c0,5,2.9,9,6.5,9c3.6,0,6.5-4,6.5-9C36.6,49.6,33.7,45.5,30.1,45.5z"/>
</svg>
