<?xml version="1.0" encoding="utf-8"?>
<!-- Generator: Adobe Illustrator 17.0.0, SVG Export Plug-In . SVG Version: 6.00 Build 0)  -->
<!DOCTYPE svg PUBLIC "-//W3C//DTD SVG 1.1//EN" "http://www.w3.org/Graphics/SVG/1.1/DTD/svg11.dtd">
<svg version="1.1" id="Layer_1" xmlns="http://www.w3.org/2000/svg" xmlns:xlink="http://www.w3.org/1999/xlink" x="0px" y="0px"
	 width="100px" height="80px" viewBox="0 0 100 80" style="enable-background:new 0 0 100 80;" xml:space="preserve">
<style type="text/css">
	.st0{fill-rule:evenodd;clip-rule:evenodd;}
</style>
<path class="st0" d="M34,40c0,8.8,7.2,16,16,16c8.8,0,16-7.2,16-16c0-8.8-7.2-16-16-16C41.2,24,34,31.2,34,40z M22.6,34
	C25.4,21.4,36.6,12,50,12c7.7,0,14.7,3.1,19.8,8.2c2.3,2.3,6.1,2.3,8.5,0c2.3-2.3,2.3-6.1,0-8.5C71,4.5,61,0,50,0
	C32.1,0,16.9,11.8,11.8,28H0v12h16C21,40,22.2,35.9,22.6,34z M84,40c-5,0-6.2,4.1-6.6,6C74.6,58.6,63.4,68,50,68
	c-7.7,0-14.7-3.1-19.8-8.2c-2.3-2.3-6.1-2.3-8.5,0c-2.3,2.3-2.3,6.1,0,8.5C29,75.5,39,80,50,80c17.9,0,33.1-11.8,38.2-28H100V40H84z
	"/>
</svg>
