<?xml version="1.0" encoding="utf-8"?>
<!-- Generator: Adobe Illustrator 17.0.0, SVG Export Plug-In . SVG Version: 6.00 Build 0)  -->
<!DOCTYPE svg PUBLIC "-//W3C//DTD SVG 1.1//EN" "http://www.w3.org/Graphics/SVG/1.1/DTD/svg11.dtd">
<svg version="1.1" id="Layer_1" xmlns="http://www.w3.org/2000/svg" xmlns:xlink="http://www.w3.org/1999/xlink" x="0px" y="0px"
	 width="1085px" height="651px" viewBox="0 0 1085 651" style="enable-background:new 0 0 1085 651;" xml:space="preserve">
<style type="text/css">
	.st0{fill:#CD3632;}
</style>
<g>
	<path class="st0" d="M270.2,499.1V215.9h109.6L189.9,0L0,215.9h109.6v326.6c0,59.9,48.6,108.5,108.5,108.5h487.2L566.3,499.1H270.2
		z M975.4,435.1V108.5C975.4,48.6,926.8,0,866.9,0H379.8l138.9,151.9h296.2v283.2H705.2L895.1,651L1085,435.1H975.4z"/>
</g>
<g id="Page_1">
	<path id="Rectangle_1" class="st0" d="M292.5,239h500v168h-250v27h-111v-27h-139V239z M320.8,378.5l55.2,0v-83.9h27.8v83.9h27.5
		v-111H320.8V378.5z M458.8,267l0.3,140h55v-27.9h55.7V267H458.8z M513.5,294h29v57h-29V294z M597.8,267v111h55.3v-83.3h27.7V378
		h27.6v-83h27.7v83h27.7V267H597.8z"/>
</g>
</svg>
